<?xml version="1.0" encoding="iso-8859-1"?>
<!-- Generator: Adobe Illustrator 18.0.0, SVG Export Plug-In . SVG Version: 6.00 Build 0)  -->
<!DOCTYPE svg PUBLIC "-//W3C//DTD SVG 1.1//EN" "http://www.w3.org/Graphics/SVG/1.1/DTD/svg11.dtd">
<svg version="1.1" id="Capa_1" xmlns="http://www.w3.org/2000/svg" xmlns:xlink="http://www.w3.org/1999/xlink" x="0px" y="0px"
	 viewBox="0 0 59.014 59.014" style="enable-background:new 0 0 59.014 59.014;" xml:space="preserve">
<g>
	<path style="fill:#1D1D1B;" d="M48.877,20.178c-6.832-6.087-17.228-9.346-19.138-19.386c-0.22-1.157-1.816-0.951-2.143,0
		C24.78,8.987,14.709,11.156,9.328,17.28C4.763,22.476,2.117,30.286,4.638,37.02c2.158,5.764,8.174,10.201,14.417,9.96
		c3.082-0.119,6.084-1.53,7.863-3.748c0.896,6.245,3.145,11.886,8.106,15.676c0.52,0.397,1.037-0.418,0.66-0.856
		c-4.76-5.534-6.754-11.677-7.094-18.707c5.145,10.903,21.582,8.643,25.945-2.396C56.999,30.712,53.534,24.327,48.877,20.178z
		 M49.247,40.523c-6.222,5.658-16.542,5.005-19.952-3.36c-0.144-0.353-0.458-0.497-0.76-0.487c0.003-0.36,0.01-0.72,0.018-1.079
		c0.038-0.04,0.084-0.073,0.114-0.117c1.357-1.944,2.879-4.033,3.494-6.353c0.138-0.522-0.538-0.948-0.926-0.539
		c-0.96,1.015-1.757,2.196-2.533,3.388c0.088-1.592,0.189-3.181,0.266-4.768c0.659-0.364,1.068-1.096,1.479-1.693
		c0.956-1.387,2.226-2.841,2.575-4.515c0.099-0.475-0.423-1.006-0.891-0.685c-1.476,1.015-1.975,2.808-3.069,4.103
		c0.019-1.022,0.004-2.044-0.032-3.065c0.854-0.318,1.37-1.307,1.866-2.002c0.824-1.156,1.981-2.363,2.236-3.789
		c0.099-0.558-0.443-1.059-0.981-0.754c-1.398,0.791-1.925,2.393-2.97,3.541c-0.096,0.106-0.208,0.235-0.333,0.36
		c-0.119-1.175-0.279-2.349-0.535-3.522c-0.106-0.486-0.834-0.359-0.846,0.115c-0.027,1.067-0.087,2.201-0.157,3.362
		c-0.125-0.15-0.243-0.3-0.323-0.381c-0.688-0.693-1.386-1.375-2.082-2.06c-0.451-0.444-1.318,0.159-0.911,0.703
		c0.848,1.134,1.651,2.354,2.592,3.414c0.176,0.198,0.369,0.395,0.576,0.57c-0.092,1.302-0.192,2.632-0.292,4
		c-0.275-0.198-0.555-0.445-0.862-0.681c-0.898-0.69-1.793-1.393-2.747-2.003c-0.519-0.332-1,0.389-0.628,0.814
		c1.117,1.277,2.414,2.694,3.779,3.71c0.103,0.076,0.209,0.149,0.316,0.218c-0.127,1.916-0.237,3.868-0.289,5.829
		c-1.07-0.885-2.021-1.883-2.832-3.078c-0.454-0.669-1.488-0.084-1.093,0.639c1.002,1.832,2.311,3.406,3.904,4.719
		c-0.002,1.388,0.019,2.773,0.101,4.141c-1.171,3.105-4.779,5.047-8.106,4.993c-3.326-0.054-6.625-1.778-8.935-4.112
		c-5.773-5.833-4.061-15.016,0.757-20.84c5.122-6.192,13.929-8.306,18.139-15.093c3.111,8.468,12.371,11.843,18.862,17.651
		C52.818,26.811,55.593,34.753,49.247,40.523z"/>
</g>
<g>
</g>
<g>
</g>
<g>
</g>
<g>
</g>
<g>
</g>
<g>
</g>
<g>
</g>
<g>
</g>
<g>
</g>
<g>
</g>
<g>
</g>
<g>
</g>
<g>
</g>
<g>
</g>
<g>
</g>
</svg>
