<?xml version="1.0" encoding="utf-8"?>
<!-- Generator: Adobe Illustrator 23.0.1, SVG Export Plug-In . SVG Version: 6.00 Build 0)  -->
<svg version="1.1" id="Capa_1" xmlns="http://www.w3.org/2000/svg" xmlns:xlink="http://www.w3.org/1999/xlink" x="0px" y="0px"
	 viewBox="0 0 398 398" style="enable-background:new 0 0 398 398;" xml:space="preserve">
<style type="text/css">
	.st0{fill:#6FB9A2;}
</style>
<g>
	<g>
		<path class="st0" d="M363,5.4c-0.5-1.9-1.8-3.6-3.6-4.5l0,0c-3.5-1.9-7.9-0.5-9.8,3c0,0,0,0,0,0c0,0.2-36.7,71.4-149.3,83.8
			c-14.7,1.6-29,5.4-42.6,11.4c-24.2,10.5-44.2,28.8-56.8,52c-11.8,21.8-16.6,46.6-14,71.2c2,17.9,7.9,35.2,17.5,50.5
			c-20,14.4-83.4,64-89.2,117.3c-0.4,4,2.5,7.5,6.4,8c4,0.4,7.5-2.5,8-6.4c5.2-47.6,64.8-93.7,83.3-107
			c22.3,27.4,55.6,42.8,91.4,45.3c24.1,1.6,48.2-2.6,70.4-12c24.1-10.1,45.4-25.9,62.1-46.1C380,219.6,400.4,132.2,363,5.4z
			 M117.3,265.5L117.3,265.5c-2.8-4.3-5.2-8.9-7.3-13.6c-4.4-9.9-7.2-20.5-8.4-31.3c-2.4-21.7,1.7-43.6,12-62.8
			c11.1-20.4,28.7-36.5,50-45.7c12.2-5.3,25.1-8.7,38.3-10c74.3-8,118-41.1,140.6-65.1c-13.3,43.6-36.1,83.8-66.8,117.5l-4.4-44.3
			c-0.2-4-3.6-7-7.6-6.8s-7,3.6-6.8,7.6c0,0.2,0,0.4,0.1,0.6l5.6,57C228.9,202.6,182.2,236.9,117.3,265.5z M325.9,262.4L325.9,262.4
			c-15.1,18.5-34.5,32.9-56.5,42.2c-20.2,8.5-42.1,12.2-64,10.7c-30.5-1.5-59-15.2-79.4-37.9c23.9-10.6,46.9-22.8,69-36.7l63.6,12
			c4,0.6,7.7-2.1,8.3-6c0.6-3.8-1.9-7.4-5.7-8.2l-48.8-9.2c22.6-15.5,43.5-33.1,62.7-52.7c0.4-0.3,0.7-0.6,1-1
			C326.5,123,348,71,356.9,39C381.6,144.4,362.7,217.8,325.9,262.4z"/>
	</g>
</g>
</svg>
