<?xml version="1.0" encoding="utf-8"?>
<!-- Generator: Adobe Illustrator 23.0.1, SVG Export Plug-In . SVG Version: 6.00 Build 0)  -->
<svg version="1.1" id="Capa_1" xmlns="http://www.w3.org/2000/svg" xmlns:xlink="http://www.w3.org/1999/xlink" x="0px" y="0px"
	 viewBox="0 0 484.2 484.2" style="enable-background:new 0 0 484.2 484.2;" xml:space="preserve">
<style type="text/css">
	.st0{fill:#6FB9A2;}
</style>
<g>
	<g id="icons_7_">
		<g>
			<circle class="st0" cx="186.3" cy="68.8" r="63.4"/>
			<path class="st0" d="M277.5,292.1c-21.6-7.3-41-15.6-58-24.8c-0.3-1.5-0.7-2.9-1.2-4.3c-4.8-13.6-17.6-22.6-32-22.6h-6.6
				c-12.6-10.9-22.7-22.5-29.9-34.9c-5-8.5-8-17.8-10-23.1c-2-5.3,0.1-9.8,0.6-12.1c0.8-3.5,1.2-7.2,1.2-10.9
				c0-28.7-23.2-51.9-51.9-51.9c-19.8,0-37,11.1-45.7,27.4C27.7,156.9-12.1,220,3.6,289.2C9,312.9,30,328.9,53.3,328.9
				c3.7,0,14.1-2.5,6.2,3.8s-28.2,22.7-28.2,22.7c-14.6,11.7-16.9,33.1-5.1,47.7c6.7,8.3,16.5,12.6,26.4,12.6c7.5,0,15-2.5,21.2-7.5
				c0,0,102.6-82.1,106.1-85.4c3.5-3.4,7.8-0.7,9.8,0.4c20.1,10.9,42.7,20.5,67.5,28.9c3.3,1.1,6.7,1.7,10.1,1.7
				c13.2,0,25.6-8.4,30-21.6C303,315.6,294.1,297.6,277.5,292.1z"/>
			<path class="st0" d="M484,332.6c-0.3-0.6-0.8-1-1.4-1.2c-10.4-2.3-20.1-3.5-28.6-3.5c-19,0-33.5,5.8-43.1,17.2
				c-7.9,9.4-12.6,22.4-14.1,39.6c-3.1,1.5-6.6,3.8-10.1,7.4c-0.9,1-1.8,2-2.7,3.1c-2.8-8.6-9.2-16.1-13.3-20.4
				c-1.2-12.7-4.6-22.3-10.5-29.2c-7.2-8.5-18-12.8-32.2-12.8c-6.4,0-13.5,0.9-21.3,2.6c-0.5,0.1-0.9,0.4-1,0.9
				c-0.2,0.4-0.2,0.9,0.1,1.4c3.3,5.5,5.9,11.4,8.5,17.1c6.9,15.5,13.4,30.2,32.9,30.2c5.5,0,11.7-1.1,18.9-3.5
				c5.5,6,12.6,15.8,11.4,24.3c-1.9,3.8-3.5,8.1-4.9,12.7c-2.2,7.5-3.8,16-4.6,25.6c-34.7,1.2-48.2,18.5-53.2,29
				c-0.6,1.2-0.5,2.7,0.2,3.8c0.7,1.2,2,1.9,3.4,1.9h107.2c0,0,0,0,0,0c2.2,0,4-1.8,4-4c0-0.9-0.3-1.7-0.8-2.3
				C418.2,456,405,444.9,375.8,444c2.5-25.8,9.8-39.2,16.3-46c2.8-2.9,5.5-4.8,7.9-6c11,3.8,20.4,5.7,28.5,5.7
				c26.1,0,34.8-19.7,44.1-40.5c3.4-7.6,6.9-15.5,11.3-22.9C484.2,333.9,484.2,333.2,484,332.6z"/>
		</g>
	</g>
</g>
</svg>
