<?xml version="1.0" encoding="utf-8"?>
<!-- Generator: Adobe Illustrator 23.0.1, SVG Export Plug-In . SVG Version: 6.00 Build 0)  -->
<svg version="1.1" id="Capa_1" xmlns="http://www.w3.org/2000/svg" xmlns:xlink="http://www.w3.org/1999/xlink" x="0px" y="0px"
	 viewBox="0 0 512 512" style="enable-background:new 0 0 512 512;" xml:space="preserve">
<style type="text/css">
	.st0{fill:#6FB9A2;}
</style>
<path class="st0" d="M166,331h271c6.7,0,12.6-4.4,14.4-10.9l60-210c1.3-4.5,0.4-9.4-2.4-13.2c-2.8-3.8-7.3-6-12-6H131.4l-10.7-48.3
	C119.1,35.9,113,31,106,31H15C6.7,31,0,37.7,0,46c0,8.3,6.7,15,15,15h79l54.2,243.7c-15.9,6.9-27.1,22.8-27.1,41.3
	c0,24.8,20.2,45,45,45h271c8.3,0,15-6.7,15-15c0-8.3-6.7-15-15-15H166c-8.3,0-15-6.7-15-15S157.7,331,166,331z"/>
<path class="st0" d="M151,436c0,24.8,20.2,45,45,45c24.8,0,45-20.2,45-45c0-24.8-20.2-45-45-45C171.2,391,151,411.2,151,436z"/>
<path class="st0" d="M362,436c0,24.8,20.2,45,45,45c24.8,0,45-20.2,45-45c0-24.8-20.2-45-45-45C382.2,391,362,411.2,362,436z"/>
</svg>
